<?xml version="1.0" encoding="UTF-8" standalone="no"?>
<!DOCTYPE svg PUBLIC "-//W3C//DTD SVG 1.1//EN" "http://www.w3.org/Graphics/SVG/1.1/DTD/svg11.dtd">
<!-- Generated by Microsoft Visio, SVG Export MU_MIMO.svg Page-1 -->
<svg xmlns="http://www.w3.org/2000/svg" xmlns:xlink="http://www.w3.org/1999/xlink" xmlns:ev="http://www.w3.org/2001/xml-events"
		xmlns:v="http://schemas.microsoft.com/visio/2003/SVGExtensions/" width="11.6929in" height="8.26772in"
		viewBox="0 0 841.89 595.276" xml:space="preserve" color-interpolation-filters="sRGB" class="st16">
	<v:documentProperties v:langID="1033" v:metric="true" v:viewMarkup="false">
		<v:userDefs>
			<v:ud v:nameU="msvSubprocessMaster" v:prompt="" v:val="VT4(Rectangle)"/>
			<v:ud v:nameU="msvNoAutoConnect" v:val="VT0(1):26"/>
		</v:userDefs>
	</v:documentProperties>

	<style type="text/css">
	<![CDATA[
		.st1 {visibility:visible}
		.st2 {fill:#000000;fill-opacity:0.4;filter:url(#filter_2.6666667461395);stroke:#000000;stroke-opacity:0.4}
		.st3 {fill:#5b9bd5;stroke:#c7c8c8;stroke-width:0.25}
		.st4 {fill:#92d050;stroke:#c7c8c8;stroke-width:0.25}
		.st5 {marker-end:url(#mrkr13-51);stroke:#5b9bd5;stroke-linecap:round;stroke-linejoin:round;stroke-width:1}
		.st6 {fill:#5b9bd5;fill-opacity:1;stroke:#5b9bd5;stroke-opacity:1;stroke-width:0.28409090909091}
		.st7 {marker-end:url(#mrkr13-77);stroke:#ff0000;stroke-linecap:round;stroke-linejoin:round;stroke-width:1}
		.st8 {fill:#ff0000;fill-opacity:1;stroke:#ff0000;stroke-opacity:1;stroke-width:0.28409090909091}
		.st9 {fill:none;stroke:none;stroke-width:0.25}
		.st10 {fill:#5b9bd5;font-family:Calibri;font-size:2.50001em}
		.st11 {marker-end:url(#mrkr13-109);stroke:#000000;stroke-linecap:round;stroke-linejoin:round;stroke-width:1}
		.st12 {fill:#000000;fill-opacity:1;stroke:#000000;stroke-opacity:1;stroke-width:0.28409090909091}
		.st13 {marker-end:url(#mrkr13-138);marker-start:url(#mrkr13-136);stroke:#5b9bd5;stroke-dasharray:21,15;stroke-linecap:round;stroke-linejoin:round;stroke-width:3}
		.st14 {fill:#5b9bd5;fill-opacity:1;stroke:#5b9bd5;stroke-opacity:1;stroke-width:0.54347826086957}
		.st15 {fill:#000000;font-family:Calibri;font-size:2.50001em}
		.st16 {fill:none;fill-rule:evenodd;font-size:12px;overflow:visible;stroke-linecap:square;stroke-miterlimit:3}
	]]>
	</style>

	<defs id="Markers">
		<g id="lend13">
			<path d="M 3 1 L 0 0 L 3 -1 L 3 1 " style="stroke:none"/>
		</g>
		<marker id="mrkr13-51" class="st6" v:arrowType="13" v:arrowSize="2" v:setback="10.56" refX="-10.56" orient="auto"
				markerUnits="strokeWidth" overflow="visible">
			<use xlink:href="#lend13" transform="scale(-3.52,-3.52) "/>
		</marker>
		<marker id="mrkr13-77" class="st8" v:arrowType="13" v:arrowSize="2" v:setback="10.56" refX="-10.56" orient="auto"
				markerUnits="strokeWidth" overflow="visible">
			<use xlink:href="#lend13" transform="scale(-3.52,-3.52) "/>
		</marker>
		<marker id="mrkr13-109" class="st12" v:arrowType="13" v:arrowSize="2" v:setback="10.56" refX="-10.56" orient="auto"
				markerUnits="strokeWidth" overflow="visible">
			<use xlink:href="#lend13" transform="scale(-3.52,-3.52) "/>
		</marker>
		<marker id="mrkr13-136" class="st14" v:arrowType="13" v:arrowSize="2" v:setback="5.4" refX="5.4" orient="auto"
				markerUnits="strokeWidth" overflow="visible">
			<use xlink:href="#lend13" transform="scale(1.84) "/>
		</marker>
		<marker id="mrkr13-138" class="st14" v:arrowType="13" v:arrowSize="2" v:setback="5.52" refX="-5.52" orient="auto"
				markerUnits="strokeWidth" overflow="visible">
			<use xlink:href="#lend13" transform="scale(-1.84,-1.84) "/>
		</marker>
	</defs>
	<defs id="Filters">
		<filter id="filter_2.6666667461395">
			<feGaussianBlur stdDeviation="2.6666667461395"/>
		</filter>
	</defs>
	<g v:mID="0" v:index="1" v:groupContext="foregroundPage">
		<v:userDefs>
			<v:ud v:nameU="msvThemeOrder" v:val="VT0(0):26"/>
			<v:ud v:nameU="VPX" v:val="VT0(5.8464566929134):24"/>
			<v:ud v:nameU="VPY" v:val="VT0(4.1338582677165):24"/>
		</v:userDefs>
		<title>Page-1</title>
		<v:pageProperties v:drawingScale="0.0393701" v:pageScale="0.0393701" v:drawingUnits="24" v:shadowOffsetX="8.50394"
				v:shadowOffsetY="-8.50394"/>
		<v:layer v:name="3D Depth" v:index="0"/>
		<g id="shape1-1" v:mID="1" v:groupContext="shape" transform="translate(155.906,-141.732)">
			<title>Circle</title>
			<v:userDefs>
				<v:ud v:nameU="visVersion" v:val="VT0(15):26"/>
			</v:userDefs>
			<g id="shadow1-2" v:groupContext="shadow" v:shadowOffsetX="2.12132" v:shadowOffsetY="-2.12132" v:shadowType="1"
					transform="matrix(1,0,0,1,2.12132,2.12132)" class="st1">
				<path d="M0 585.35 A9.92126 9.92126 0 0 1 19.84 585.35 A9.92126 9.92126 0 1 1 0 585.35 Z" class="st2"/>
			</g>
			<path d="M0 585.35 A9.92126 9.92126 0 0 1 19.84 585.35 A9.92126 9.92126 0 1 1 0 585.35 Z" class="st3"/>
		</g>
		<g id="shape2-6" v:mID="2" v:groupContext="shape" transform="translate(155.906,-182.835)">
			<title>Circle.2</title>
			<v:userDefs>
				<v:ud v:nameU="visVersion" v:val="VT0(15):26"/>
			</v:userDefs>
			<g id="shadow2-7" v:groupContext="shadow" v:shadowOffsetX="2.12132" v:shadowOffsetY="-2.12132" v:shadowType="1"
					transform="matrix(1,0,0,1,2.12132,2.12132)" class="st1">
				<path d="M0 585.35 A9.92126 9.92126 0 0 1 19.84 585.35 A9.92126 9.92126 0 1 1 0 585.35 Z" class="st2"/>
			</g>
			<path d="M0 585.35 A9.92126 9.92126 0 0 1 19.84 585.35 A9.92126 9.92126 0 1 1 0 585.35 Z" class="st3"/>
		</g>
		<g id="shape3-11" v:mID="3" v:groupContext="shape" transform="translate(155.906,-223.937)">
			<title>Circle.3</title>
			<v:userDefs>
				<v:ud v:nameU="visVersion" v:val="VT0(15):26"/>
			</v:userDefs>
			<g id="shadow3-12" v:groupContext="shadow" v:shadowOffsetX="2.12132" v:shadowOffsetY="-2.12132" v:shadowType="1"
					transform="matrix(1,0,0,1,2.12132,2.12132)" class="st1">
				<path d="M0 585.35 A9.92126 9.92126 0 0 1 19.84 585.35 A9.92126 9.92126 0 1 1 0 585.35 Z" class="st2"/>
			</g>
			<path d="M0 585.35 A9.92126 9.92126 0 0 1 19.84 585.35 A9.92126 9.92126 0 1 1 0 585.35 Z" class="st3"/>
		</g>
		<g id="shape4-16" v:mID="4" v:groupContext="shape" transform="translate(155.906,-265.039)">
			<title>Circle.4</title>
			<v:userDefs>
				<v:ud v:nameU="visVersion" v:val="VT0(15):26"/>
			</v:userDefs>
			<g id="shadow4-17" v:groupContext="shadow" v:shadowOffsetX="2.12132" v:shadowOffsetY="-2.12132" v:shadowType="1"
					transform="matrix(1,0,0,1,2.12132,2.12132)" class="st1">
				<path d="M0 585.35 A9.92126 9.92126 0 0 1 19.84 585.35 A9.92126 9.92126 0 1 1 0 585.35 Z" class="st2"/>
			</g>
			<path d="M0 585.35 A9.92126 9.92126 0 0 1 19.84 585.35 A9.92126 9.92126 0 1 1 0 585.35 Z" class="st3"/>
		</g>
		<g id="shape5-21" v:mID="5" v:groupContext="shape" transform="translate(155.906,-306.142)">
			<title>Circle.5</title>
			<v:userDefs>
				<v:ud v:nameU="visVersion" v:val="VT0(15):26"/>
			</v:userDefs>
			<g id="shadow5-22" v:groupContext="shadow" v:shadowOffsetX="2.12132" v:shadowOffsetY="-2.12132" v:shadowType="1"
					transform="matrix(1,0,0,1,2.12132,2.12132)" class="st1">
				<path d="M0 585.35 A9.92126 9.92126 0 0 1 19.84 585.35 A9.92126 9.92126 0 1 1 0 585.35 Z" class="st2"/>
			</g>
			<path d="M0 585.35 A9.92126 9.92126 0 0 1 19.84 585.35 A9.92126 9.92126 0 1 1 0 585.35 Z" class="st3"/>
		</g>
		<g id="shape6-26" v:mID="6" v:groupContext="shape" transform="translate(722.835,-311.811)">
			<title>Circle.6</title>
			<v:userDefs>
				<v:ud v:nameU="visVersion" v:val="VT0(15):26"/>
			</v:userDefs>
			<g id="shadow6-27" v:groupContext="shadow" v:shadowOffsetX="2.12132" v:shadowOffsetY="-2.12132" v:shadowType="1"
					transform="matrix(1,0,0,1,2.12132,2.12132)" class="st1">
				<path d="M0 585.35 A9.92126 9.92126 0 0 1 19.84 585.35 A9.92126 9.92126 0 1 1 0 585.35 Z" class="st2"/>
			</g>
			<path d="M0 585.35 A9.92126 9.92126 0 0 1 19.84 585.35 A9.92126 9.92126 0 1 1 0 585.35 Z" class="st4"/>
		</g>
		<g id="shape7-31" v:mID="7" v:groupContext="shape" transform="translate(722.835,-352.913)">
			<title>Circle.7</title>
			<v:userDefs>
				<v:ud v:nameU="visVersion" v:val="VT0(15):26"/>
			</v:userDefs>
			<g id="shadow7-32" v:groupContext="shadow" v:shadowOffsetX="2.12132" v:shadowOffsetY="-2.12132" v:shadowType="1"
					transform="matrix(1,0,0,1,2.12132,2.12132)" class="st1">
				<path d="M0 585.35 A9.92126 9.92126 0 0 1 19.84 585.35 A9.92126 9.92126 0 1 1 0 585.35 Z" class="st2"/>
			</g>
			<path d="M0 585.35 A9.92126 9.92126 0 0 1 19.84 585.35 A9.92126 9.92126 0 1 1 0 585.35 Z" class="st4"/>
		</g>
		<g id="shape8-36" v:mID="8" v:groupContext="shape" transform="translate(722.835,-394.016)">
			<title>Circle.8</title>
			<v:userDefs>
				<v:ud v:nameU="visVersion" v:val="VT0(15):26"/>
			</v:userDefs>
			<g id="shadow8-37" v:groupContext="shadow" v:shadowOffsetX="2.12132" v:shadowOffsetY="-2.12132" v:shadowType="1"
					transform="matrix(1,0,0,1,2.12132,2.12132)" class="st1">
				<path d="M0 585.35 A9.92126 9.92126 0 0 1 19.84 585.35 A9.92126 9.92126 0 1 1 0 585.35 Z" class="st2"/>
			</g>
			<path d="M0 585.35 A9.92126 9.92126 0 0 1 19.84 585.35 A9.92126 9.92126 0 1 1 0 585.35 Z" class="st4"/>
		</g>
		<g id="shape9-41" v:mID="9" v:groupContext="shape" transform="translate(722.835,-435.118)">
			<title>Circle.9</title>
			<v:userDefs>
				<v:ud v:nameU="visVersion" v:val="VT0(15):26"/>
			</v:userDefs>
			<g id="shadow9-42" v:groupContext="shadow" v:shadowOffsetX="2.12132" v:shadowOffsetY="-2.12132" v:shadowType="1"
					transform="matrix(1,0,0,1,2.12132,2.12132)" class="st1">
				<path d="M0 585.35 A9.92126 9.92126 0 0 1 19.84 585.35 A9.92126 9.92126 0 1 1 0 585.35 Z" class="st2"/>
			</g>
			<path d="M0 585.35 A9.92126 9.92126 0 0 1 19.84 585.35 A9.92126 9.92126 0 1 1 0 585.35 Z" class="st4"/>
		</g>
		<g id="shape19-46" v:mID="19" v:groupContext="shape" transform="translate(-105.58,-80.9802) rotate(-28.2033)">
			<title>Sheet.19</title>
			<path d="M0 595.28 L610.23 595.28" class="st5"/>
		</g>
		<g id="shape20-52" v:mID="20" v:groupContext="shape" transform="translate(-73.5294,-138.048) rotate(-24.7563)">
			<title>Sheet.20</title>
			<path d="M0 595.28 L591.89 595.28" class="st5"/>
		</g>
		<g id="shape21-57" v:mID="21" v:groupContext="shape" transform="translate(-38.6181,-193.921) rotate(-21.1071)">
			<title>Sheet.21</title>
			<path d="M0 595.28 L575.87 595.28" class="st5"/>
		</g>
		<g id="shape22-62" v:mID="22" v:groupContext="shape" transform="translate(-0.969082,-248.125) rotate(-17.2695)">
			<title>Sheet.22</title>
			<path d="M0 595.28 L562.35 595.28" class="st5"/>
		</g>
		<g id="shape23-67" v:mID="23" v:groupContext="shape" transform="translate(39.1555,-300.18) rotate(-13.2653)">
			<title>Sheet.23</title>
			<path d="M0 595.28 L551.52 595.28" class="st5"/>
		</g>
		<g id="shape24-72" v:mID="24" v:groupContext="shape" transform="translate(-73.5294,-96.946) rotate(-24.7563)">
			<title>Sheet.24</title>
			<path d="M0 595.28 L591.89 595.28" class="st7"/>
		</g>
		<g id="shape25-78" v:mID="25" v:groupContext="shape" transform="translate(-38.6181,-152.818) rotate(-21.1071)">
			<title>Sheet.25</title>
			<path d="M0 595.28 L575.87 595.28" class="st7"/>
		</g>
		<g id="shape26-83" v:mID="26" v:groupContext="shape" transform="translate(-0.969082,-207.023) rotate(-17.2695)">
			<title>Sheet.26</title>
			<path d="M0 595.28 L562.35 595.28" class="st7"/>
		</g>
		<g id="shape27-88" v:mID="27" v:groupContext="shape" transform="translate(39.1555,-259.077) rotate(-13.2653)">
			<title>Sheet.27</title>
			<path d="M0 595.28 L551.52 595.28" class="st7"/>
		</g>
		<g id="shape28-93" v:mID="28" v:groupContext="shape" transform="translate(81.3438,-308.53) rotate(-9.12501)">
			<title>Sheet.28</title>
			<path d="M0 595.28 L543.54 595.28" class="st7"/>
		</g>
		<g id="shape29-98" v:mID="29" v:groupContext="shape" transform="translate(124.724,-340.157)">
			<title>Sheet.29</title>
			<desc>RRU</desc>
			<v:textBlock v:margins="rect(4,4,4,4)" v:tabSpace="42.5197"/>
			<v:textRect cx="45.3543" cy="575.433" width="90.71" height="39.685"/>
			<rect x="0" y="555.591" width="90.7087" height="39.685" class="st9"/>
			<text x="19.44" y="584.43" class="st10" v:langID="1053"><v:paragraph v:horizAlign="1"/><v:tabList/>RRU</text>		</g>
		<g id="shape30-101" v:mID="30" v:groupContext="shape" transform="translate(687.402,-462.047)">
			<title>Sheet.30</title>
			<desc>UE</desc>
			<v:textBlock v:margins="rect(4,4,4,4)" v:tabSpace="42.5197"/>
			<v:textRect cx="45.3543" cy="575.433" width="90.71" height="39.685"/>
			<rect x="0" y="555.591" width="90.7087" height="39.685" class="st9"/>
			<text x="28.41" y="584.43" class="st10" v:langID="1053"><v:paragraph v:horizAlign="1"/><v:tabList/>UE</text>		</g>
		<g id="shape31-104" v:mID="31" v:groupContext="shape" transform="translate(-0.969082,-124.818) rotate(-17.2695)">
			<title>Sheet.31</title>
			<path d="M0 595.28 L562.35 595.28" class="st11"/>
		</g>
		<g id="shape32-110" v:mID="32" v:groupContext="shape" transform="translate(39.1555,-176.873) rotate(-13.2653)">
			<title>Sheet.32</title>
			<path d="M0 595.28 L551.52 595.28" class="st11"/>
		</g>
		<g id="shape33-115" v:mID="33" v:groupContext="shape" transform="translate(81.3438,-226.325) rotate(-9.12501)">
			<title>Sheet.33</title>
			<path d="M0 595.28 L543.54 595.28" class="st11"/>
		</g>
		<g id="shape34-120" v:mID="34" v:groupContext="shape" transform="translate(125.042,-272.797) rotate(-4.88646)">
			<title>Sheet.34</title>
			<path d="M0 595.28 L538.52 595.28" class="st11"/>
		</g>
		<g id="shape35-125" v:mID="35" v:groupContext="shape" transform="translate(169.58,-316.031) rotate(-0.593717)">
			<title>Sheet.35</title>
			<path d="M0 595.28 L536.56 595.28" class="st11"/>
		</g>
		<g id="shape36-130" v:mID="36" v:groupContext="shape" transform="translate(164.409,-70.8661)">
			<title>Sheet.36</title>
			<path d="M16.2 595.28 L16.56 595.28 L556.04 595.28" class="st13"/>
		</g>
		<g id="shape37-139" v:mID="37" v:groupContext="shape" transform="translate(1332.28,306.142) rotate(90)">
			<title>Sheet.37</title>
			<path d="M16.2 595.28 L16.56 595.28 L181.61 595.28" class="st13"/>
		</g>
		<g id="shape38-146" v:mID="38" v:groupContext="shape" transform="translate(417.366,-85.0394)">
			<title>Sheet.38</title>
			<desc>x</desc>
			<v:textBlock v:margins="rect(4,4,4,4)" v:tabSpace="42.5197"/>
			<v:textRect cx="36.1777" cy="585.276" width="72.36" height="20"/>
			<rect x="0" y="575.276" width="72.3555" height="20" class="st9"/>
			<text x="29.68" y="594.28" class="st15" v:langID="1053"><v:paragraph v:horizAlign="1"/><v:tabList/>x</text>		</g>
		<g id="shape40-149" v:mID="40" v:groupContext="shape" transform="translate(742.305,-172.913)">
			<title>Sheet.40</title>
			<desc>y</desc>
			<v:textBlock v:margins="rect(4,4,4,4)" v:tabSpace="42.5197"/>
			<v:textRect cx="23.0495" cy="575.433" width="46.1" height="39.685"/>
			<rect x="0" y="555.591" width="46.099" height="39.685" class="st9"/>
			<text x="16.26" y="584.43" class="st15" v:langID="1053"><v:paragraph v:horizAlign="1"/><v:tabList/>y</text>		</g>
	</g>
</svg>
